STARTFONT 2.1
FONT -sun-helmet-bold-i-normal--17-170-75-75-p-108-adobe-fontspecific
SIZE 17 75 75
FONTBOUNDINGBOX 23 20 -3 -4

STARTPROPERTIES 28
FOUNDRY "sun"
FAMILY_NAME "helmet"
WEIGHT_NAME "bold"
SLANT "i"
SETWIDTH_NAME "normal"
ADD_STYLE_NAME ""
PIXEL_SIZE 18
POINT_SIZE 170
RESOLUTION_X 75
RESOLUTION_Y 75
SPACING "p"
AVERAGE_WIDTH 108
CHARSET_REGISTRY "adobe"
CHARSET_ENCODING "fontspecific"
COPYRIGHT "© 1999 Sun Microsystems, Inc."
RAW_PIXELSIZE 1000
RAW_POINTSIZE 964
RAW_ASCENT 929
RAW_DESCENT 205
RAW_AVERAGE_WIDTH 6124
FACE_NAME "HelmetBoldItalic5"
_XMBDFED_INFO "Edited with xmbdfed 2.4."
WEIGHT 10
X_HEIGHT -1
QUAD_WIDTH 10
DEFAULT_CHAR 4
FONT_DESCENT 4
FONT_ASCENT 16
ENDPROPERTIES

CHARS 202

STARTCHAR char32
ENCODING 32
SWIDTH 30 0
DWIDTH 6 0
BBX 0 0 0 0
BITMAP
ENDCHAR

STARTCHAR char33
ENCODING 33
SWIDTH 30 0
DWIDTH 6 0
BBX 6 13 1 0
BITMAP
3C
3C
38
38
38
78
70
70
00
F0
F0
F0
E0
ENDCHAR

STARTCHAR char34
ENCODING 34
SWIDTH 40 0
DWIDTH 8 0
BBX 9 6 1 6
BITMAP
7380
7380
7700
3300
E700
CE00
ENDCHAR

STARTCHAR char35
ENCODING 35
SWIDTH 50 0
DWIDTH 10 0
BBX 9 13 0 0
BITMAP
1900
1100
1300
1300
7F80
1200
3200
3200
FF00
2600
2600
2400
2400
ENDCHAR

STARTCHAR char36
ENCODING 36
SWIDTH 14 0
DWIDTH 13 0
BBX 11 15 1 -1
BITMAP
0200
0700
3FC0
3FE0
79E0
7800
7F00
3F80
1FC0
03C0
E1C0
FF80
7F00
1800
1800
ENDCHAR

STARTCHAR char37
ENCODING 37
SWIDTH 39 0
DWIDTH 18 0
BBX 16 12 1 0
BITMAP
3818
7C30
6C20
CC60
CCCE
D99F
799B
7333
0633
0436
0C3E
181C
ENDCHAR

STARTCHAR char38
ENCODING 38
SWIDTH 19 0
DWIDTH 14 0
BBX 13 13 0 0
BITMAP
0780
0FC0
1EE0
1CE0
1FE0
0FC0
3F80
7F70
F3F0
F3E0
F3C0
7FE0
3EF0
ENDCHAR

STARTCHAR char39
ENCODING 39
SWIDTH 25 0
DWIDTH 5 0
BBX 5 7 1 6
BITMAP
08
38
28
60
70
70
70
ENDCHAR

STARTCHAR char40
ENCODING 40
SWIDTH 35 0
DWIDTH 7 0
BBX 7 16 1 -3
BITMAP
0E
1E
1C
3C
38
78
70
70
F0
F0
E0
E0
E0
E0
E0
F0
ENDCHAR

STARTCHAR char41
ENCODING 41
SWIDTH 35 0
DWIDTH 7 0
BBX 6 16 -1 -3
BITMAP
1C
1C
1C
1C
1C
1C
1C
1C
1C
3C
38
38
38
70
70
E0
ENDCHAR

STARTCHAR char42
ENCODING 42
SWIDTH 45 0
DWIDTH 9 0
BBX 8 8 2 5
BITMAP
18
18
D9
FE
7E
78
CC
08
ENDCHAR

STARTCHAR char43
ENCODING 43
SWIDTH 14 0
DWIDTH 13 0
BBX 11 10 1 0
BITMAP
0600
0600
0600
0600
FFE0
FFE0
0600
0600
0600
0600
ENDCHAR

STARTCHAR char44
ENCODING 44
SWIDTH 25 0
DWIDTH 5 0
BBX 5 7 -1 -3
BITMAP
78
78
78
70
30
F0
E0
ENDCHAR

STARTCHAR char45
ENCODING 45
SWIDTH 35 0
DWIDTH 7 0
BBX 7 3 0 3
BITMAP
7E
7C
E0
ENDCHAR

STARTCHAR char46
ENCODING 46
SWIDTH 25 0
DWIDTH 5 0
BBX 4 4 0 0
BITMAP
F0
F0
F0
F0
ENDCHAR

STARTCHAR char47
ENCODING 47
SWIDTH 50 0
DWIDTH 10 0
BBX 12 13 -1 0
BITMAP
00F0
01E0
01C0
03C0
0780
0700
0F00
1E00
1E00
3C00
3800
7800
F000
ENDCHAR

STARTCHAR char48
ENCODING 48
SWIDTH 9 0
DWIDTH 12 0
BBX 10 12 1 0
BITMAP
0F00
1F80
39C0
71C0
F1C0
F1C0
E1C0
E380
E380
F700
7F00
3C00
ENDCHAR

STARTCHAR char49
ENCODING 49
SWIDTH 9 0
DWIDTH 12 0
BBX 7 12 3 0
BITMAP
0E
1E
BE
FE
FC
BC
3C
3C
38
78
78
78
ENDCHAR

STARTCHAR char50
ENCODING 50
SWIDTH 9 0
DWIDTH 12 0
BBX 11 13 0 -1
BITMAP
0F80
1FC0
3DE0
38E0
78E0
03C0
0F80
3F00
7E00
7CC0
FFC0
FF80
F000
ENDCHAR

STARTCHAR char51
ENCODING 51
SWIDTH 9 0
DWIDTH 12 0
BBX 11 12 1 0
BITMAP
0F80
3FC0
39E0
70E0
07E0
0FC0
0FC0
E3C0
E3C0
F7C0
7F80
3E00
ENDCHAR

STARTCHAR char52
ENCODING 52
SWIDTH 9 0
DWIDTH 12 0
BBX 12 12 0 0
BITMAP
01F0
03E0
07E0
0FE0
1DE0
79E0
71D0
7FF0
FFE0
C3C0
0380
0780
ENDCHAR

STARTCHAR char53
ENCODING 53
SWIDTH 9 0
DWIDTH 12 0
BBX 11 13 1 0
BITMAP
00E0
3FE0
3FC0
3800
7000
7780
7FC0
73C0
01C0
E3C0
F780
7F00
3E00
ENDCHAR

STARTCHAR char54
ENCODING 54
SWIDTH 9 0
DWIDTH 12 0
BBX 11 13 1 0
BITMAP
0F80
1FC0
3FE0
79E0
7000
FF00
FF80
F1C0
E1C0
E1C0
F380
7F00
3E00
ENDCHAR

STARTCHAR char55
ENCODING 55
SWIDTH 9 0
DWIDTH 12 0
BBX 10 12 2 0
BITMAP
FFC0
FFC0
C780
0F00
1E00
1E00
3C00
3C00
7800
7800
7000
F000
ENDCHAR

STARTCHAR char56
ENCODING 56
SWIDTH 9 0
DWIDTH 12 0
BBX 11 12 1 0
BITMAP
0F80
3FC0
79E0
70E0
39C0
3F80
7F80
E1C0
E3C0
FFC0
7F80
3E00
ENDCHAR

STARTCHAR char57
ENCODING 57
SWIDTH 9 0
DWIDTH 12 0
BBX 11 12 0 0
BITMAP
0F80
3FC0
3DE0
70E0
70E0
79E0
3FE0
1FC0
F3C0
FF80
7F80
3E00
ENDCHAR

STARTCHAR char58
ENCODING 58
SWIDTH 30 0
DWIDTH 6 0
BBX 5 9 1 0
BITMAP
78
78
78
70
00
F0
F0
F0
E0
ENDCHAR

STARTCHAR char59
ENCODING 59
SWIDTH 30 0
DWIDTH 6 0
BBX 6 12 0 -3
BITMAP
3C
3C
3C
38
00
78
78
78
70
30
F0
E0
ENDCHAR

STARTCHAR char60
ENCODING 60
SWIDTH 4 0
DWIDTH 11 0
BBX 9 9 1 0
BITMAP
0180
0700
1800
6000
8000
E000
1800
0700
0180
ENDCHAR

STARTCHAR char61
ENCODING 61
SWIDTH 14 0
DWIDTH 13 0
BBX 12 6 1 2
BITMAP
FFF0
FFF0
0000
0000
FFF0
FFF0
ENDCHAR

STARTCHAR char62
ENCODING 62
SWIDTH 4 0
DWIDTH 11 0
BBX 9 9 1 0
BITMAP
8000
E000
1800
0700
0180
0700
1800
6000
8000
ENDCHAR

STARTCHAR char63
ENCODING 63
SWIDTH 9 0
DWIDTH 12 0
BBX 10 13 2 0
BITMAP
0800
7F80
FFC0
F1C0
F7C0
0F80
1E00
3C00
0000
3800
7800
7800
7800
ENDCHAR

STARTCHAR char64
ENCODING 64
SWIDTH 44 0
DWIDTH 19 0
BBX 14 13 2 0
BITMAP
07C0
1860
3018
67A8
6CCC
D84C
D84C
D8C8
D990
6EE0
3018
1830
0FC0
ENDCHAR

STARTCHAR char65
ENCODING 65
SWIDTH 24 0
DWIDTH 15 0
BBX 14 12 -1 0
BITMAP
01E0
03E0
03F0
07F0
0770
0F70
1E70
1EF8
3FF8
7FF8
7838
7038
ENDCHAR

STARTCHAR char66
ENCODING 66
SWIDTH 19 0
DWIDTH 14 0
BBX 12 13 0 -1
BITMAP
3FE0
3FF0
3C70
3870
3FE0
7FC0
78E0
78E0
78E0
71E0
FFC0
FF80
8000
ENDCHAR

STARTCHAR char67
ENCODING 67
SWIDTH 19 0
DWIDTH 14 0
BBX 12 12 1 0
BITMAP
0780
1FE0
3CF0
7870
F000
E000
E000
E0E0
E1E0
73E0
7FC0
1F00
ENDCHAR

STARTCHAR char68
ENCODING 68
SWIDTH 24 0
DWIDTH 15 0
BBX 13 12 0 0
BITMAP
3FE0
3FF0
3C78
3C38
3838
7838
7878
7878
79F0
7FE0
FFC0
FF80
ENDCHAR

STARTCHAR char69
ENCODING 69
SWIDTH 14 0
DWIDTH 13 0
BBX 13 13 0 -1
BITMAP
3FF8
3FF0
3C00
3800
38E0
7FE0
7FE0
7800
7800
71E0
FFE0
FFE0
FC00
ENDCHAR

STARTCHAR char70
ENCODING 70
SWIDTH 9 0
DWIDTH 12 0
BBX 12 12 0 0
BITMAP
3FF0
3FF0
3C00
3C00
38C0
7FC0
7FC0
7800
7000
F000
F000
7000
ENDCHAR

STARTCHAR char71
ENCODING 71
SWIDTH 24 0
DWIDTH 15 0
BBX 13 13 1 -1
BITMAP
07C0
1FF0
3CF8
7878
F008
F1F8
E1F0
E2F0
F0F0
79F0
7FF0
1E60
0040
ENDCHAR

STARTCHAR char72
ENCODING 72
SWIDTH 19 0
DWIDTH 14 0
BBX 14 12 0 0
BITMAP
1C38
3C3C
3C3C
3C38
3FF8
7FF8
7FF8
7878
78F0
F0F0
F0F0
7070
ENDCHAR

STARTCHAR char73
ENCODING 73
SWIDTH 30 0
DWIDTH 6 0
BBX 7 12 0 0
BITMAP
1C
3C
3C
3C
3C
78
78
78
78
78
F0
70
ENDCHAR

STARTCHAR char74
ENCODING 74
SWIDTH 4 0
DWIDTH 11 0
BBX 11 12 0 0
BITMAP
01E0
01E0
01E0
01E0
03C0
03C0
03C0
E3C0
F380
F780
7F00
3E00
ENDCHAR

STARTCHAR char75
ENCODING 75
SWIDTH 19 0
DWIDTH 14 0
BBX 15 12 0 0
BITMAP
1C7C
3CFC
3DF0
3FE0
3F80
7F80
7FC0
7FC0
79E0
F1E0
F0F0
70F0
ENDCHAR

STARTCHAR char76
ENCODING 76
SWIDTH 4 0
DWIDTH 11 0
BBX 10 13 0 -1
BITMAP
1C00
3C00
3C00
3C00
3C00
7800
7800
7800
7800
79C0
FFC0
FFC0
F800
ENDCHAR

STARTCHAR char77
ENCODING 77
SWIDTH 34 0
DWIDTH 17 0
BBX 16 12 0 0
BITMAP
3F1E
3F3F
3F3F
3F7F
7F7E
7FEE
77FE
77DE
77DC
F79C
F7BC
671C
ENDCHAR

STARTCHAR char78
ENCODING 78
SWIDTH 19 0
DWIDTH 14 0
BBX 14 12 0 0
BITMAP
3E38
3E3C
3E38
3F38
3F78
7F78
7BF0
73F0
73F0
F1F0
F1E0
71E0
ENDCHAR

STARTCHAR char79
ENCODING 79
SWIDTH 24 0
DWIDTH 15 0
BBX 13 12 1 0
BITMAP
0FC0
1FF0
3CF0
7878
F038
E038
E078
E0F0
F0F0
7DE0
3FC0
1F80
ENDCHAR

STARTCHAR char80
ENCODING 80
SWIDTH 14 0
DWIDTH 13 0
BBX 12 12 0 0
BITMAP
3FC0
3FE0
3C70
3C70
7870
78E0
7FE0
7F80
7000
F000
F000
7000
ENDCHAR

STARTCHAR char81
ENCODING 81
SWIDTH 24 0
DWIDTH 15 0
BBX 13 13 1 -1
BITMAP
07C0
1FF0
3CF8
7878
F038
E038
E178
E3F8
F3F0
7BF0
3FE0
1F70
0020
ENDCHAR

STARTCHAR char82
ENCODING 82
SWIDTH 19 0
DWIDTH 14 0
BBX 13 12 0 0
BITMAP
3FF0
3FF8
3C78
3C38
78F0
7FF0
7FE0
79F0
F0F0
F0F0
F0F0
70F0
ENDCHAR

STARTCHAR char83
ENCODING 83
SWIDTH 14 0
DWIDTH 13 0
BBX 11 12 1 0
BITMAP
0FC0
3FE0
79E0
7C00
7F00
3FC0
1FC0
03C0
E1C0
F780
7F80
3E00
ENDCHAR

STARTCHAR char84
ENCODING 84
SWIDTH 4 0
DWIDTH 11 0
BBX 11 12 1 0
BITMAP
FFE0
FFE0
DE00
1E00
1E00
1E00
1C00
3C00
3C00
3C00
3C00
3800
ENDCHAR

STARTCHAR char85
ENCODING 85
SWIDTH 19 0
DWIDTH 14 0
BBX 13 12 1 0
BITMAP
3070
3878
7878
78F0
70F0
70F0
F0E0
E1E0
E1E0
F3E0
7FC0
3F00
ENDCHAR

STARTCHAR char86
ENCODING 86
SWIDTH 9 0
DWIDTH 12 0
BBX 12 12 2 0
BITMAP
F1E0
F1E0
F3E0
F3C0
F3C0
F780
F700
7F00
7E00
7E00
7C00
7C00
ENDCHAR

STARTCHAR char87
ENCODING 87
SWIDTH 39 0
DWIDTH 18 0
BBX 17 12 2 0
BITMAP
F3C700
F3CF80
F3CF00
F7DF00
F7DE00
FFFE00
FFFC00
7DFC00
7DF800
7DF800
79F000
79F000
ENDCHAR

STARTCHAR char88
ENCODING 88
SWIDTH 24 0
DWIDTH 15 0
BBX 16 12 -1 0
BITMAP
1E1E
0F3E
0FFC
07F8
07F0
03E0
07E0
0FF0
1FF0
3EF8
7C78
787C
ENDCHAR

STARTCHAR char89
ENCODING 89
SWIDTH 19 0
DWIDTH 14 0
BBX 13 12 2 0
BITMAP
F0F0
F1F0
7BE0
7BC0
3F80
3F00
3E00
1E00
1C00
3C00
3C00
1C00
ENDCHAR

STARTCHAR char90
ENCODING 90
SWIDTH 14 0
DWIDTH 13 0
BBX 14 14 -1 -1
BITMAP
00FC
1FFC
1FF8
1DF8
03F0
07E0
0FE0
1FC0
3F80
7F00
7E70
7FF0
7FF0
7E00
ENDCHAR

STARTCHAR char91
ENCODING 91
SWIDTH 40 0
DWIDTH 8 0
BBX 9 16 0 -4
BITMAP
1F80
1F80
1C00
1C00
3C00
3C00
3C00
3800
3800
7800
7800
7800
7200
7C00
FC00
C000
ENDCHAR

STARTCHAR char92
ENCODING 92
SWIDTH 25 0
DWIDTH 5 0
BBX 5 13 0 0
BITMAP
80
80
40
40
40
60
20
20
30
10
10
18
08
ENDCHAR

STARTCHAR char93
ENCODING 93
SWIDTH 40 0
DWIDTH 8 0
BBX 9 17 -1 -4
BITMAP
0380
1F80
1F00
2700
0F00
0F00
0F00
0E00
0E00
1E00
1E00
1C00
1C00
1C00
FC00
FC00
C000
ENDCHAR

STARTCHAR char94
ENCODING 94
SWIDTH 0 0
DWIDTH 0 0
BBX 7 2 -1 14
BITMAP
7C
EE
ENDCHAR

STARTCHAR char95
ENCODING 95
SWIDTH 4 0
DWIDTH 11 0
BBX 10 1 0 -2
BITMAP
FFC0
ENDCHAR

STARTCHAR char96
ENCODING 96
SWIDTH 0 0
DWIDTH 0 0
BBX 5 2 -2 10
BITMAP
70
38
ENDCHAR

STARTCHAR char97
ENCODING 97
SWIDTH 9 0
DWIDTH 12 0
BBX 11 9 0 0
BITMAP
1FC0
38E0
60E0
0FE0
7FE0
F1C0
E3C0
FFC0
79C0
ENDCHAR

STARTCHAR char98
ENCODING 98
SWIDTH 9 0
DWIDTH 12 0
BBX 11 13 0 0
BITMAP
3C00
3C00
3800
3B80
7FC0
7FE0
79E0
78E0
70E0
71E0
FBC0
FFC0
E700
ENDCHAR

STARTCHAR char99
ENCODING 99
SWIDTH 4 0
DWIDTH 11 0
BBX 9 9 1 0
BITMAP
1E00
3F00
7F80
F380
E000
E380
F700
7F00
3E00
ENDCHAR

STARTCHAR char100
ENCODING 100
SWIDTH 9 0
DWIDTH 12 0
BBX 11 12 1 0
BITMAP
00E0
01E0
01E0
1DE0
3FC0
73C0
E3C0
E3C0
E380
E780
7F80
7780
ENDCHAR

STARTCHAR char101
ENCODING 101
SWIDTH 9 0
DWIDTH 12 0
BBX 10 9 1 0
BITMAP
1F00
3F80
73C0
FFC0
FFC0
E000
E080
7700
3E00
ENDCHAR

STARTCHAR char102
ENCODING 102
SWIDTH 30 0
DWIDTH 6 0
BBX 8 12 0 0
BITMAP
1F
1E
3C
7E
7E
38
78
78
78
70
F0
70
ENDCHAR

STARTCHAR char103
ENCODING 103
SWIDTH 9 0
DWIDTH 12 0
BBX 11 12 0 -3
BITMAP
1EE0
7FE0
79E0
F1E0
E1C0
F3C0
FFC0
7FC0
03C0
0380
E700
7E00
ENDCHAR

STARTCHAR char104
ENCODING 104
SWIDTH 9 0
DWIDTH 12 0
BBX 11 12 0 0
BITMAP
3C00
3C00
3800
3BC0
7FE0
7DE0
79E0
71E0
71C0
F1C0
F3C0
61C0
ENDCHAR

STARTCHAR char105
ENCODING 105
SWIDTH 30 0
DWIDTH 6 0
BBX 6 12 0 0
BITMAP
1C
3C
00
38
38
78
78
78
70
F0
F0
70
ENDCHAR

STARTCHAR char106
ENCODING 106
SWIDTH 30 0
DWIDTH 6 0
BBX 8 16 -2 -4
BITMAP
0F
0F
00
0E
1E
1E
1C
1C
1C
3C
3C
38
F8
F8
F0
80
ENDCHAR

STARTCHAR char107
ENCODING 107
SWIDTH 4 0
DWIDTH 11 0
BBX 12 12 0 0
BITMAP
3C00
3C00
3800
39E0
7BC0
7F80
7F00
7F00
7F80
F780
F380
73C0
ENDCHAR

STARTCHAR char108
ENCODING 108
SWIDTH 30 0
DWIDTH 6 0
BBX 6 12 0 0
BITMAP
3C
3C
3C
38
38
78
78
78
70
F0
F0
70
ENDCHAR

STARTCHAR char109
ENCODING 109
SWIDTH 44 0
DWIDTH 19 0
BBX 17 9 0 0
BITMAP
23CF00
7FFF80
7BFF80
79E780
71C700
F3C700
F3CF00
F3CF00
618700
ENDCHAR

STARTCHAR char110
ENCODING 110
SWIDTH 9 0
DWIDTH 12 0
BBX 11 9 0 0
BITMAP
23C0
3FE0
79E0
79E0
71C0
73C0
F3C0
F3C0
7180
ENDCHAR

STARTCHAR char111
ENCODING 111
SWIDTH 9 0
DWIDTH 12 0
BBX 10 9 1 0
BITMAP
1F00
3F80
73C0
E1C0
E1C0
E3C0
E780
7F80
3E00
ENDCHAR

STARTCHAR char112
ENCODING 112
SWIDTH 9 0
DWIDTH 12 0
BBX 12 12 -1 -3
BITMAP
1DE0
3FF0
3CF0
3C70
3870
78F0
79E0
7FC0
7780
F000
F000
7000
ENDCHAR

STARTCHAR char113
ENCODING 113
SWIDTH 9 0
DWIDTH 12 0
BBX 11 12 1 -3
BITMAP
1DE0
3FC0
73C0
F3C0
E3C0
E3C0
E780
FF80
7F80
0780
0700
0700
ENDCHAR

STARTCHAR char114
ENCODING 114
SWIDTH 40 0
DWIDTH 8 0
BBX 8 9 0 0
BITMAP
3B
3F
7F
78
78
70
F0
F0
70
ENDCHAR

STARTCHAR char115
ENCODING 115
SWIDTH 4 0
DWIDTH 11 0
BBX 10 9 0 0
BITMAP
1F00
7BC0
7800
7E00
3F80
0F80
E380
FF00
7E00
ENDCHAR

STARTCHAR char116
ENCODING 116
SWIDTH 35 0
DWIDTH 7 0
BBX 7 12 0 0
BITMAP
1C
3C
3C
7E
7E
38
78
78
70
7C
7C
78
ENDCHAR

STARTCHAR char117
ENCODING 117
SWIDTH 9 0
DWIDTH 12 0
BBX 10 9 1 0
BITMAP
6180
73C0
73C0
E3C0
E380
E780
EF80
FF80
7100
ENDCHAR

STARTCHAR char118
ENCODING 118
SWIDTH 50 0
DWIDTH 10 0
BBX 10 9 1 0
BITMAP
E380
E380
E780
F700
FF00
7E00
7C00
7C00
7800
ENDCHAR

STARTCHAR char119
ENCODING 119
SWIDTH 29 0
DWIDTH 16 0
BBX 15 9 1 0
BITMAP
E39C
E79E
E79C
EFBC
FDB8
FDF8
F9F0
F9E0
F1E0
ENDCHAR

STARTCHAR char120
ENCODING 120
SWIDTH 4 0
DWIDTH 11 0
BBX 12 9 -1 0
BITMAP
3DE0
1DE0
1FC0
0F80
0F00
1F80
3F80
7BC0
7BC0
ENDCHAR

STARTCHAR char121
ENCODING 121
SWIDTH 50 0
DWIDTH 10 0
BBX 11 12 0 -3
BITMAP
71C0
73C0
7380
7780
7700
3700
3E00
3E00
3C00
BC00
F800
F000
ENDCHAR

STARTCHAR char122
ENCODING 122
SWIDTH 50 0
DWIDTH 10 0
BBX 11 11 -1 -1
BITMAP
0020
1FE0
3FE0
27C0
0F80
1F00
3E00
3C20
7FC0
7F80
8000
ENDCHAR

STARTCHAR char123
ENCODING 123
SWIDTH 30 0
DWIDTH 6 0
BBX 4 15 1 -3
BITMAP
70
60
60
60
60
60
40
80
40
40
60
60
60
60
30
ENDCHAR

STARTCHAR char124
ENCODING 124
SWIDTH 25 0
DWIDTH 5 0
BBX 2 13 1 0
BITMAP
C0
C0
C0
C0
C0
C0
C0
C0
C0
C0
C0
C0
C0
ENDCHAR

STARTCHAR char125
ENCODING 125
SWIDTH 30 0
DWIDTH 6 0
BBX 4 15 1 -3
BITMAP
C0
60
60
60
60
60
20
10
60
60
60
60
60
60
C0
ENDCHAR

STARTCHAR char126
ENCODING 126
SWIDTH 0 0
DWIDTH 0 0
BBX 7 2 -1 14
BITMAP
7E
FC
ENDCHAR

STARTCHAR char128
ENCODING 128
SWIDTH 19 0
DWIDTH 14 0
BBX 15 12 -1 0
BITMAP
01E0
07F8
0F3C
1E1C
7FC0
3C00
FFC0
3C38
3C78
1EF8
0FF0
07C0
ENDCHAR

STARTCHAR char130
ENCODING 130
SWIDTH 25 0
DWIDTH 5 0
BBX 5 7 -1 -3
BITMAP
38
78
78
78
38
70
E0
ENDCHAR

STARTCHAR char131
ENCODING 131
SWIDTH 0 0
DWIDTH 0 0
BBX 7 2 -1 14
BITMAP
7C
EE
ENDCHAR

STARTCHAR char132
ENCODING 132
SWIDTH 45 0
DWIDTH 9 0
BBX 9 7 -1 -4
BITMAP
7380
7700
7700
3300
6700
EE00
C000
ENDCHAR

STARTCHAR char133
ENCODING 133
SWIDTH 44 0
DWIDTH 19 0
BBX 14 2 2 0
BITMAP
C30C
C30C
ENDCHAR

STARTCHAR char134
ENCODING 134
SWIDTH 4 0
DWIDTH 11 0
BBX 10 15 1 -3
BITMAP
0E00
0E00
1EC0
FFC0
FF80
BF80
3C00
3C00
3C00
3C00
7800
7800
7800
7800
3800
ENDCHAR

STARTCHAR char136
ENCODING 136
SWIDTH 0 0
DWIDTH 0 0
BBX 7 2 -2 10
BITMAP
3C
6E
ENDCHAR

STARTCHAR char138
ENCODING 138
SWIDTH 39 0
DWIDTH 18 0
BBX 0 0 0 0
BITMAP
ENDCHAR

STARTCHAR char139
ENCODING 139
SWIDTH 30 0
DWIDTH 6 0
BBX 2 6 2 2
BITMAP
40
40
80
80
C0
40
ENDCHAR

STARTCHAR char140
ENCODING 140
SWIDTH 49 0
DWIDTH 20 0
BBX 19 13 1 -1
BITMAP
0FBFC0
1FFFC0
3CFFC0
787800
707980
E07F80
E07F00
E0F000
E0F000
71FF80
7FFF00
3FFF00
018000
ENDCHAR

STARTCHAR char141
ENCODING 141
SWIDTH 39 0
DWIDTH 18 0
BBX 0 0 0 0
BITMAP
ENDCHAR

STARTCHAR char145
ENCODING 145
SWIDTH 25 0
DWIDTH 5 0
BBX 5 7 1 6
BITMAP
08
38
28
60
70
70
F0
ENDCHAR

STARTCHAR char146
ENCODING 146
SWIDTH 25 0
DWIDTH 5 0
BBX 5 7 1 6
BITMAP
18
38
78
70
30
70
E0
ENDCHAR

STARTCHAR char147
ENCODING 147
SWIDTH 45 0
DWIDTH 9 0
BBX 9 6 1 6
BITMAP
3980
7380
6600
7700
E700
E700
ENDCHAR

STARTCHAR char148
ENCODING 148
SWIDTH 45 0
DWIDTH 9 0
BBX 9 6 1 6
BITMAP
7380
7780
7700
3300
E700
CE00
ENDCHAR

STARTCHAR char149
ENCODING 149
SWIDTH 30 0
DWIDTH 6 0
BBX 5 5 0 4
BITMAP
70
F8
F8
F8
70
ENDCHAR

STARTCHAR char150
ENCODING 150
SWIDTH 9 0
DWIDTH 12 0
BBX 11 3 0 3
BITMAP
7FE0
7FE0
FC00
ENDCHAR

STARTCHAR char151
ENCODING 151
SWIDTH 14 0
DWIDTH 13 0
BBX 12 2 1 4
BITMAP
FFF0
FFF0
ENDCHAR

STARTCHAR char152
ENCODING 152
SWIDTH 0 0
DWIDTH 0 0
BBX 7 2 -2 10
BITMAP
7E
DC
ENDCHAR

STARTCHAR char153
ENCODING 153
SWIDTH 29 0
DWIDTH 16 0
BBX 14 7 0 5
BITMAP
FF0C
AD0C
2194
2194
215C
216C
732C
ENDCHAR

STARTCHAR char155
ENCODING 155
SWIDTH 30 0
DWIDTH 6 0
BBX 2 6 2 2
BITMAP
80
80
40
40
C0
80
ENDCHAR

STARTCHAR char156
ENCODING 156
SWIDTH 39 0
DWIDTH 18 0
BBX 16 9 0 0
BITMAP
1FBC
3FFE
79E7
F1FF
E1FF
E1C0
FBC2
7FEE
3E78
ENDCHAR

STARTCHAR char157
ENCODING 157
SWIDTH 39 0
DWIDTH 18 0
BBX 0 0 0 0
BITMAP
ENDCHAR

STARTCHAR char159
ENCODING 159
SWIDTH 19 0
DWIDTH 14 0
BBX 13 16 2 0
BITMAP
1DC0
1DC0
0000
F0F8
F0F0
F1E0
7BE0
7BC0
3F80
3F00
1E00
1E00
1C00
3C00
3C00
1C00
ENDCHAR

STARTCHAR char160
ENCODING 160
SWIDTH 30 0
DWIDTH 6 0
BBX 0 0 0 0
BITMAP
ENDCHAR

STARTCHAR char161
ENCODING 161
SWIDTH 30 0
DWIDTH 6 0
BBX 6 12 0 0
BITMAP
3C
3C
38
38
30
70
70
70
F0
F0
F0
60
ENDCHAR

STARTCHAR char162
ENCODING 162
SWIDTH 4 0
DWIDTH 11 0
BBX 9 13 1 -2
BITMAP
0400
0C00
3F00
7F80
7380
E000
E000
E380
F700
7F00
3E00
1000
1000
ENDCHAR

STARTCHAR char163
ENCODING 163
SWIDTH 14 0
DWIDTH 13 0
BBX 11 12 1 0
BITMAP
0FC0
3FE0
78E0
70E0
7800
FE00
FE00
7800
7880
FF80
FFC0
4700
ENDCHAR

STARTCHAR char164
ENCODING 164
SWIDTH 0 0
DWIDTH 0 0
BBX 5 2 1 14
BITMAP
70
E0
ENDCHAR

STARTCHAR char165
ENCODING 165
SWIDTH 0 0
DWIDTH 0 0
BBX 7 2 -1 14
BITMAP
EC
78
ENDCHAR

STARTCHAR char166
ENCODING 166
SWIDTH 39 0
DWIDTH 18 0
BBX 0 0 0 0
BITMAP
ENDCHAR

STARTCHAR char167
ENCODING 167
SWIDTH 14 0
DWIDTH 13 0
BBX 12 15 0 -3
BITMAP
07E0
0FF0
1CF0
1F00
1FC0
7FE0
71F0
F870
7FF0
3FE0
0FC0
03C0
73C0
7F80
3E00
ENDCHAR

STARTCHAR char168
ENCODING 168
SWIDTH 0 0
DWIDTH 0 0
BBX 8 2 -2 10
BITMAP
EE
EE
ENDCHAR

STARTCHAR char169
ENCODING 169
SWIDTH 19 0
DWIDTH 14 0
BBX 13 12 0 0
BITMAP
0700
18C0
2020
4790
C890
D818
D818
D818
48D0
4710
3060
0F80
ENDCHAR

STARTCHAR char170
ENCODING 170
SWIDTH 0 0
DWIDTH 0 0
BBX 8 2 -2 14
BITMAP
77
77
ENDCHAR

STARTCHAR char171
ENCODING 171
SWIDTH 40 0
DWIDTH 8 0
BBX 8 8 0 1
BITMAP
11
32
7E
6C
CC
EE
6C
24
ENDCHAR

STARTCHAR char172
ENCODING 172
SWIDTH 14 0
DWIDTH 13 0
BBX 12 5 0 0
BITMAP
FFF0
0030
0030
0030
0030
ENDCHAR

STARTCHAR char174
ENCODING 174
SWIDTH 19 0
DWIDTH 14 0
BBX 13 12 0 0
BITMAP
0700
18C0
2020
4F90
4D90
CD98
CE18
CF18
4D90
4DD0
3060
0F80
ENDCHAR

STARTCHAR char176
ENCODING 176
SWIDTH 30 0
DWIDTH 6 0
BBX 6 6 1 6
BITMAP
30
48
CC
CC
48
30
ENDCHAR

STARTCHAR char177
ENCODING 177
SWIDTH 50 0
DWIDTH 10 0
BBX 9 11 0 0
BITMAP
1800
1800
1800
1800
FF80
1800
1800
1800
1800
0000
FF80
ENDCHAR

STARTCHAR char179
ENCODING 179
SWIDTH 39 0
DWIDTH 18 0
BBX 0 0 0 0
BITMAP
ENDCHAR

STARTCHAR char180
ENCODING 180
SWIDTH 0 0
DWIDTH 0 0
BBX 5 2 0 10
BITMAP
70
E0
ENDCHAR

STARTCHAR char182
ENCODING 182
SWIDTH 14 0
DWIDTH 13 0
BBX 8 15 2 -3
BITMAP
3F
66
E6
E6
E6
66
26
26
26
26
26
26
26
26
26
ENDCHAR

STARTCHAR char183
ENCODING 183
SWIDTH 15 0
DWIDTH 3 0
BBX 3 2 1 4
BITMAP
E0
E0
ENDCHAR

STARTCHAR char184
ENCODING 184
SWIDTH 0 0
DWIDTH 0 0
BBX 5 4 -3 -4
BITMAP
70
70
F0
E0
ENDCHAR

STARTCHAR char186
ENCODING 186
SWIDTH 0 0
DWIDTH 0 0
BBX 7 2 -1 14
BITMAP
7E
FC
ENDCHAR

STARTCHAR char187
ENCODING 187
SWIDTH 40 0
DWIDTH 8 0
BBX 7 8 0 1
BITMAP
44
6C
7E
76
66
EC
D8
90
ENDCHAR

STARTCHAR char189
ENCODING 189
SWIDTH 39 0
DWIDTH 18 0
BBX 0 0 0 0
BITMAP
ENDCHAR

STARTCHAR char191
ENCODING 191
SWIDTH 9 0
DWIDTH 12 0
BBX 10 12 0 0
BITMAP
0780
0700
0700
0F00
0E00
1E00
3E00
7800
E3C0
F7C0
FF80
7F00
ENDCHAR

STARTCHAR char192
ENCODING 192
SWIDTH 24 0
DWIDTH 15 0
BBX 14 16 -1 0
BITMAP
03C0
00E0
0000
01E0
01E0
03F0
03F0
07F0
0F70
0F70
1E78
3EF8
3FF8
7FF8
7838
7038
ENDCHAR

STARTCHAR char193
ENCODING 193
SWIDTH 24 0
DWIDTH 15 0
BBX 14 16 -1 0
BITMAP
0070
00E0
0000
01E0
01E0
03F0
03F0
07F0
0F70
0F70
1E78
3EF8
3FF8
7FF8
7838
7038
ENDCHAR

STARTCHAR char194
ENCODING 194
SWIDTH 24 0
DWIDTH 15 0
BBX 14 16 -1 0
BITMAP
01F0
03B8
0000
01E0
01E0
03F0
03F0
07F0
0F70
0F70
1E78
3EF8
3FF8
7FF8
7838
7038
ENDCHAR

STARTCHAR char195
ENCODING 195
SWIDTH 24 0
DWIDTH 15 0
BBX 14 16 -1 0
BITMAP
01F8
03F0
0000
01E0
01E0
03F0
03F0
07F0
0F70
0F70
1E78
3EF8
3FF8
7FF8
7838
7038
ENDCHAR

STARTCHAR char196
ENCODING 196
SWIDTH 24 0
DWIDTH 15 0
BBX 14 16 -1 0
BITMAP
03BC
03B8
0000
01E0
01E0
03F0
03F0
07F0
0F70
0F70
1E78
3EF8
3FF8
7FF8
7838
7038
ENDCHAR

STARTCHAR char197
ENCODING 197
SWIDTH 24 0
DWIDTH 15 0
BBX 14 16 -1 0
BITMAP
00E0
00B0
00E0
01F0
01F0
03F0
03F0
07F0
0F70
0F78
1E78
3EF8
3FF8
7FF8
7838
7038
ENDCHAR

STARTCHAR char198
ENCODING 198
SWIDTH 44 0
DWIDTH 19 0
BBX 19 12 -1 0
BITMAP
03FFE0
03FFE0
073800
077800
0F78C0
0E7F80
1E7F80
3C7000
3FF000
7FFF80
78FF80
F0FF80
ENDCHAR

STARTCHAR char199
ENCODING 199
SWIDTH 19 0
DWIDTH 14 0
BBX 12 16 1 -4
BITMAP
0780
1FE0
3CF0
7870
F000
E000
E000
E0E0
F1E0
7FE0
7FC0
1F80
1C00
1C00
3C00
3800
ENDCHAR

STARTCHAR char200
ENCODING 200
SWIDTH 14 0
DWIDTH 13 0
BBX 13 17 0 -1
BITMAP
0700
0380
0000
0000
3FF8
3FF0
3C00
3800
38E0
7FE0
7FE0
7800
7800
71E0
FFE0
FFE0
FC00
ENDCHAR

STARTCHAR char201
ENCODING 201
SWIDTH 14 0
DWIDTH 13 0
BBX 13 17 0 -1
BITMAP
01E0
0380
0000
0000
3FF8
3FF0
3C00
3800
38E0
7FE0
7FE0
7800
7800
71E0
FFE0
FFE0
FC00
ENDCHAR

STARTCHAR char202
ENCODING 202
SWIDTH 14 0
DWIDTH 13 0
BBX 13 17 0 -1
BITMAP
03C0
06E0
0000
0000
3FF8
3FF0
3C00
3800
38E0
7FE0
7FE0
7800
7800
71E0
FFE0
FFE0
FC00
ENDCHAR

STARTCHAR char203
ENCODING 203
SWIDTH 14 0
DWIDTH 13 0
BBX 13 17 0 -1
BITMAP
0EE0
0EE0
0000
0000
3FF8
3FF0
3C00
3800
38E0
7FE0
7FE0
7800
7800
71E0
FFE0
FFE0
FC00
ENDCHAR

STARTCHAR char204
ENCODING 204
SWIDTH 30 0
DWIDTH 6 0
BBX 7 16 0 0
BITMAP
38
1C
00
1E
1C
3C
3C
3C
3C
78
78
78
78
F0
F0
70
ENDCHAR

STARTCHAR char205
ENCODING 205
SWIDTH 30 0
DWIDTH 6 0
BBX 8 16 0 0
BITMAP
0F
1C
00
1E
1C
3C
3C
3C
3C
78
78
78
78
F0
F0
70
ENDCHAR

STARTCHAR char206
ENCODING 206
SWIDTH 30 0
DWIDTH 6 0
BBX 8 16 0 0
BITMAP
1E
37
00
1E
1C
3C
3C
3C
3C
78
78
78
78
F0
F0
70
ENDCHAR

STARTCHAR char207
ENCODING 207
SWIDTH 30 0
DWIDTH 6 0
BBX 8 16 0 0
BITMAP
77
77
00
1E
1C
3C
3C
3C
3C
78
78
78
78
F0
F0
70
ENDCHAR

STARTCHAR char209
ENCODING 209
SWIDTH 19 0
DWIDTH 14 0
BBX 14 16 0 0
BITMAP
03E0
07E0
0000
1E3C
3E3C
3E38
3E38
3F38
7F78
7F78
7BF0
73F0
73F0
F1F0
F1E0
71E0
ENDCHAR

STARTCHAR char210
ENCODING 210
SWIDTH 24 0
DWIDTH 15 0
BBX 13 16 1 0
BITMAP
0780
03C0
0000
0000
0FC0
1FF0
3CF0
7878
F038
E038
E078
E0F0
F0F0
7DE0
3FC0
1F80
ENDCHAR

STARTCHAR char211
ENCODING 211
SWIDTH 24 0
DWIDTH 15 0
BBX 13 16 1 0
BITMAP
01E0
0380
0000
0000
0FC0
1FF0
3CF0
7878
F038
E038
E078
E0F0
F0F0
7DE0
3FC0
1F80
ENDCHAR

STARTCHAR char212
ENCODING 212
SWIDTH 24 0
DWIDTH 15 0
BBX 13 16 1 0
BITMAP
03E0
07E0
0000
0000
0FC0
1FF0
3CF0
7878
F038
E038
E078
E0F0
F0F0
7DE0
3FC0
1F80
ENDCHAR

STARTCHAR char213
ENCODING 213
SWIDTH 24 0
DWIDTH 15 0
BBX 13 16 1 0
BITMAP
0760
0FC0
0000
0000
0FC0
1FF0
3CF0
7878
F038
E038
E078
E0F0
F0F0
7DE0
3FC0
1F80
ENDCHAR

STARTCHAR char214
ENCODING 214
SWIDTH 24 0
DWIDTH 15 0
BBX 13 16 1 0
BITMAP
0770
0E70
0000
0000
0FC0
1FF0
3CF0
7878
F038
E038
E078
E0F0
F0F0
7DE0
3FC0
1F80
ENDCHAR

STARTCHAR char216
ENCODING 216
SWIDTH 24 0
DWIDTH 15 0
BBX 15 12 0 0
BITMAP
07E6
0FFC
1E78
3C7C
78FC
7BBC
7F3C
7E78
7878
7CF0
7FE0
CF80
ENDCHAR

STARTCHAR char217
ENCODING 217
SWIDTH 19 0
DWIDTH 14 0
BBX 13 16 1 0
BITMAP
0F00
0780
0000
3878
3878
7878
78F0
78F0
70F0
70F0
F0E0
E1E0
E1E0
F3E0
7FC0
3F00
ENDCHAR

STARTCHAR char218
ENCODING 218
SWIDTH 19 0
DWIDTH 14 0
BBX 13 16 1 0
BITMAP
01C0
0380
0000
3878
3878
7878
78F0
78F0
70F0
70F0
F0E0
E1E0
E1E0
F3E0
7FC0
3F00
ENDCHAR

STARTCHAR char219
ENCODING 219
SWIDTH 19 0
DWIDTH 14 0
BBX 13 16 1 0
BITMAP
07C0
06C0
0000
3878
3878
7878
78F0
78F0
70F0
70F0
F0E0
E1E0
E1E0
F3E0
7FC0
3F00
ENDCHAR

STARTCHAR char220
ENCODING 220
SWIDTH 19 0
DWIDTH 14 0
BBX 13 16 1 0
BITMAP
0EE0
0EE0
0000
7878
7878
7878
78F0
78F0
F0F0
F0F0
F0E0
F1E0
F1E0
FBE0
FFC0
3F00
ENDCHAR

STARTCHAR char222
ENCODING 222
SWIDTH 39 0
DWIDTH 18 0
BBX 0 0 0 0
BITMAP
ENDCHAR

STARTCHAR char223
ENCODING 223
SWIDTH 9 0
DWIDTH 12 0
BBX 11 12 0 0
BITMAP
0FC0
1FE0
38E0
39E0
7FC0
7FC0
71C0
71E0
71E0
F7C0
FF80
EF00
ENDCHAR

STARTCHAR char224
ENCODING 224
SWIDTH 9 0
DWIDTH 12 0
BBX 11 12 0 0
BITMAP
1E00
0700
0000
1FC0
78E0
41E0
0FE0
7FE0
F1C0
E3C0
FFC0
7BC0
ENDCHAR

STARTCHAR char225
ENCODING 225
SWIDTH 9 0
DWIDTH 12 0
BBX 11 12 0 0
BITMAP
0380
0300
0000
1FC0
78E0
41E0
0FE0
7FE0
F1C0
E3C0
FFC0
7BC0
ENDCHAR

STARTCHAR char226
ENCODING 226
SWIDTH 9 0
DWIDTH 12 0
BBX 11 12 0 0
BITMAP
07C0
0CC0
0000
1FC0
78E0
41E0
0FE0
7FE0
F1C0
E3C0
FFC0
7BC0
ENDCHAR

STARTCHAR char227
ENCODING 227
SWIDTH 9 0
DWIDTH 12 0
BBX 11 12 0 0
BITMAP
0EC0
1F80
0000
1FC0
78E0
41E0
0FE0
7FE0
F1C0
E3C0
FFC0
7BC0
ENDCHAR

STARTCHAR char228
ENCODING 228
SWIDTH 9 0
DWIDTH 12 0
BBX 11 12 0 0
BITMAP
1EE0
1CE0
0000
1FE0
38E0
61E0
0FE0
7FE0
F1C0
E3C0
FFC0
7BC0
ENDCHAR

STARTCHAR char229
ENCODING 229
SWIDTH 9 0
DWIDTH 12 0
BBX 11 13 0 0
BITMAP
0300
0680
0300
0000
1FC0
7FE0
78E0
1FE0
7FE0
F1C0
E3C0
FFC0
7FC0
ENDCHAR

STARTCHAR char230
ENCODING 230
SWIDTH 39 0
DWIDTH 18 0
BBX 16 9 0 0
BITMAP
1FBC
3FFE
79E7
3FFF
7DFF
F1C0
E3CE
FFFE
7878
ENDCHAR

STARTCHAR char231
ENCODING 231
SWIDTH 4 0
DWIDTH 11 0
BBX 9 13 1 -4
BITMAP
1F00
3F80
7380
E000
E000
E380
F700
7F00
3E00
3800
3800
7000
7000
ENDCHAR

STARTCHAR char232
ENCODING 232
SWIDTH 9 0
DWIDTH 12 0
BBX 10 12 1 0
BITMAP
1C00
0E00
0000
1F00
3F80
73C0
FFC0
FFC0
E000
E780
7F80
3E00
ENDCHAR

STARTCHAR char233
ENCODING 233
SWIDTH 9 0
DWIDTH 12 0
BBX 10 12 1 0
BITMAP
0700
0E00
0000
1F00
3F80
73C0
FFC0
FFC0
E000
E780
7F80
3E00
ENDCHAR

STARTCHAR char234
ENCODING 234
SWIDTH 9 0
DWIDTH 12 0
BBX 10 12 1 0
BITMAP
0F00
1B80
0000
1F00
3F80
73C0
FFC0
FFC0
E000
E780
7F80
3E00
ENDCHAR

STARTCHAR char235
ENCODING 235
SWIDTH 9 0
DWIDTH 12 0
BBX 10 12 1 0
BITMAP
3B80
3B80
0000
1F00
3F80
73C0
FFC0
FFC0
E000
E780
7F80
3E00
ENDCHAR

STARTCHAR char236
ENCODING 236
SWIDTH 30 0
DWIDTH 6 0
BBX 6 12 0 0
BITMAP
70
38
00
38
38
78
78
78
70
F0
F0
70
ENDCHAR

STARTCHAR char237
ENCODING 237
SWIDTH 30 0
DWIDTH 6 0
BBX 7 12 0 0
BITMAP
1C
18
00
38
38
78
78
78
70
F0
F0
70
ENDCHAR

STARTCHAR char238
ENCODING 238
SWIDTH 30 0
DWIDTH 6 0
BBX 7 12 0 0
BITMAP
3C
7E
00
38
38
78
78
78
70
F0
F0
70
ENDCHAR

STARTCHAR char239
ENCODING 239
SWIDTH 30 0
DWIDTH 6 0
BBX 8 12 0 0
BITMAP
F7
EF
00
3C
38
38
78
78
78
70
F0
70
ENDCHAR

STARTCHAR char241
ENCODING 241
SWIDTH 9 0
DWIDTH 12 0
BBX 11 12 0 0
BITMAP
0FC0
1B80
0000
3BC0
7FE0
79E0
79E0
71C0
73C0
F3C0
F3C0
7180
ENDCHAR

STARTCHAR char242
ENCODING 242
SWIDTH 9 0
DWIDTH 12 0
BBX 10 12 1 0
BITMAP
1C00
0E00
0000
1F00
3F80
73C0
E1C0
E1C0
E3C0
E780
7F80
3E00
ENDCHAR

STARTCHAR char243
ENCODING 243
SWIDTH 9 0
DWIDTH 12 0
BBX 10 12 1 0
BITMAP
0700
0E00
0000
1F00
3F80
73C0
E1C0
E1C0
E3C0
E780
7F80
3E00
ENDCHAR

STARTCHAR char244
ENCODING 244
SWIDTH 9 0
DWIDTH 12 0
BBX 10 12 1 0
BITMAP
0F80
1980
0000
1F00
3F80
73C0
E1C0
E1C0
E3C0
E780
7F80
3E00
ENDCHAR

STARTCHAR char245
ENCODING 245
SWIDTH 9 0
DWIDTH 12 0
BBX 10 12 1 0
BITMAP
1F80
1700
0000
1F00
3F80
73C0
E1C0
E1C0
E3C0
E780
7F80
3E00
ENDCHAR

STARTCHAR char246
ENCODING 246
SWIDTH 9 0
DWIDTH 12 0
BBX 10 12 1 0
BITMAP
1DC0
19C0
0000
1F00
3F80
73C0
E1C0
E1C0
E3C0
E780
7F00
7E00
ENDCHAR

STARTCHAR char247
ENCODING 247
SWIDTH 50 0
DWIDTH 10 0
BBX 9 7 0 1
BITMAP
1800
1800
0000
FF80
0000
1800
1800
ENDCHAR

STARTCHAR char248
ENCODING 248
SWIDTH 9 0
DWIDTH 12 0
BBX 11 9 0 0
BITMAP
0FA0
3FE0
79E0
73E0
F7E0
F9C0
73C0
7F80
BF00
ENDCHAR

STARTCHAR char249
ENCODING 249
SWIDTH 9 0
DWIDTH 12 0
BBX 10 12 1 0
BITMAP
1C00
0E00
0000
71C0
73C0
73C0
F3C0
E380
E780
EF80
FF80
7100
ENDCHAR

STARTCHAR char250
ENCODING 250
SWIDTH 9 0
DWIDTH 12 0
BBX 10 12 1 0
BITMAP
0700
0E00
0000
71C0
73C0
73C0
F3C0
E380
E780
EF80
FF80
7100
ENDCHAR

STARTCHAR char251
ENCODING 251
SWIDTH 9 0
DWIDTH 12 0
BBX 10 12 1 0
BITMAP
0F00
1B80
0000
71C0
73C0
73C0
F3C0
E380
E780
EF80
FF80
7100
ENDCHAR

STARTCHAR char252
ENCODING 252
SWIDTH 9 0
DWIDTH 12 0
BBX 11 12 0 0
BITMAP
1EE0
1DC0
0000
38E0
79E0
79E0
71E0
71C0
73C0
FFC0
7FC0
7880
ENDCHAR

STARTCHAR char255
ENCODING 255
SWIDTH 50 0
DWIDTH 10 0
BBX 11 15 0 -3
BITMAP
3BC0
3B80
0000
71C0
73C0
7380
7780
7700
3700
3E00
3E00
3C00
BC00
F800
F000
ENDCHAR
ENDFONT
